<?xml version="1.0" standalone="no"?><!DOCTYPE svg PUBLIC "-//W3C//DTD SVG 1.1//EN" "http://www.w3.org/Graphics/SVG/1.1/DTD/svg11.dtd"><svg t="1774329231554" class="icon" viewBox="0 0 1024 1024" version="1.1" xmlns="http://www.w3.org/2000/svg" p-id="2772" width="128" height="128" xmlns:xlink="http://www.w3.org/1999/xlink"><path d="M512 0C229.376 0 0 229.376 0 512s229.376 512 512 512 512-229.376 512-512-229.376-512-512-512z m295.936 635.392H688.64a41.92 41.92 0 0 1-34.816-18.944l-1.024-1.536-21.504-44.032-58.88 208.896a40.896 40.896 0 0 1-38.912 30.72h-1.536a40.064 40.064 0 0 1-38.912-28.16l-0.512-1.536-79.872-345.088L371.2 603.136a42.624 42.624 0 0 1-35.84 32.256H214.528a40.96 40.96 0 0 1-29.696-12.288 42.24 42.24 0 0 1-12.288-29.696v-3.072c0-22.528 18.432-40.96 40.96-40.96h84.992L373.76 245.76a40.832 40.832 0 0 1 38.4-32.256 40.704 40.704 0 0 1 40.96 28.16l0.512 1.536 82.432 356.352 44.544-157.696a42.368 42.368 0 0 1 34.304-30.72c16.384-2.56 31.744 5.12 40.96 18.944l1.024 1.536 57.856 118.272h95.232c23.04 0 41.984 18.944 41.984 41.984a44.288 44.288 0 0 1-44.032 43.52z" fill="#F05542" p-id="2773"></path></svg>