<svg width="32" height="32" viewBox="0 0 32 32" fill="none" xmlns="http://www.w3.org/2000/svg">
<path d="M20.6667 10L23.7334 13.0667C23.9826 13.311 24.3177 13.4478 24.6667 13.4478C25.0157 13.4478 25.3508 13.311 25.6 13.0667L28.4 10.2667C28.6443 10.0174 28.7812 9.68233 28.7812 9.33333C28.7812 8.98433 28.6443 8.64923 28.4 8.4L25.3334 5.33333" stroke="white" stroke-width="2.66667" stroke-linecap="round" stroke-linejoin="round"/>
<path d="M28 2.66667L15.2 15.4667" stroke="white" stroke-width="2.66667" stroke-linecap="round" stroke-linejoin="round"/>
<path d="M10 28C14.0501 28 17.3334 24.7168 17.3334 20.6667C17.3334 16.6166 14.0501 13.3333 10 13.3333C5.94993 13.3333 2.66669 16.6166 2.66669 20.6667C2.66669 24.7168 5.94993 28 10 28Z" stroke="white" stroke-width="2.66667" stroke-linecap="round" stroke-linejoin="round"/>
</svg>
